<?xml version="1.0" standalone="no"?>
<!DOCTYPE svg PUBLIC "-//W3C//DTD SVG 20010904//EN"
 "http://www.w3.org/TR/2001/REC-SVG-20010904/DTD/svg10.dtd">
<svg version="1.0" xmlns="http://www.w3.org/2000/svg"
 width="640.000000pt" height="640.000000pt" viewBox="0 0 640.000000 640.000000"
 preserveAspectRatio="xMidYMid meet">

<g transform="translate(0.000000,640.000000) scale(0.100000,-0.100000)"
fill="#000000" stroke="none">
<path d="M2965 5604 c-357 -52 -550 -106 -805 -226 -435 -205 -814 -556 -1061
-984 -78 -136 -138 -269 -191 -424 -43 -129 -78 -272 -105 -435 -25 -153 -25
-532 1 -693 41 -264 108 -477 226 -718 192 -394 470 -710 836 -953 286 -190
623 -322 964 -376 159 -26 504 -31 660 -11 556 73 1037 306 1420 686 821 815
952 2109 309 3064 -338 504 -838 857 -1421 1006 -191 49 -304 62 -558 65 -135
2 -258 1 -275 -1z m575 -318 c700 -120 1278 -554 1580 -1188 135 -285 190
-518 197 -851 9 -383 -50 -662 -208 -985 -275 -560 -764 -963 -1362 -1122
-202 -53 -290 -64 -542 -64 -245 0 -328 9 -530 60 -651 163 -1210 660 -1450
1289 -179 468 -189 965 -32 1438 105 312 256 560 486 800 347 360 787 575
1311 641 80 10 458 -3 550 -18z"/>
<path d="M1893 4243 c-60 -21 -137 -94 -170 -161 -23 -46 -28 -70 -28 -127 2
-279 333 -416 530 -220 56 57 78 109 83 201 4 73 1 88 -23 143 -34 75 -100
138 -171 164 -60 21 -162 21 -221 0z"/>
<path d="M2590 4191 c-101 -31 -166 -110 -177 -216 -11 -103 47 -203 145 -248
l47 -22 955 0 955 0 50 23 c63 29 91 55 121 114 30 60 32 153 5 213 -23 51
-98 118 -149 133 -45 14 -1908 16 -1952 3z"/>
<path d="M1909 3487 c-136 -51 -213 -157 -213 -297 -1 -64 4 -84 29 -133 32
-64 82 -114 147 -149 34 -18 60 -22 128 -23 74 0 93 4 142 28 103 51 159 140
166 263 4 72 1 89 -20 136 -54 116 -148 181 -273 185 -41 2 -85 -2 -106 -10z"/>
<path d="M2582 3425 c-59 -18 -106 -57 -139 -113 -24 -40 -28 -58 -28 -122 0
-86 14 -119 75 -180 73 -73 31 -70 1070 -70 1025 0 989 -2 1067 65 111 95 112
270 3 369 -76 68 -40 66 -1074 65 -747 0 -939 -3 -974 -14z"/>
<path d="M1905 2723 c-215 -77 -280 -339 -126 -506 57 -62 119 -90 212 -95 67
-4 84 -1 132 21 121 55 179 141 185 273 4 91 -12 144 -67 213 -71 89 -227 133
-336 94z"/>
<path d="M2607 2669 c-166 -39 -246 -221 -162 -365 30 -52 91 -100 146 -114
25 -7 368 -9 991 -8 l953 3 41 22 c48 25 101 83 120 129 21 51 18 147 -7 197
-29 58 -55 84 -114 115 l-50 27 -940 2 c-531 1 -956 -3 -978 -8z"/>
</g>
</svg>
