<?xml version="1.0" standalone="no"?>
<!DOCTYPE svg PUBLIC "-//W3C//DTD SVG 20010904//EN"
 "http://www.w3.org/TR/2001/REC-SVG-20010904/DTD/svg10.dtd">
<svg version="1.0" xmlns="http://www.w3.org/2000/svg"
 width="360.000000pt" height="360.000000pt" viewBox="0 0 360.000000 360.000000"
 preserveAspectRatio="xMidYMid meet">

<g transform="translate(0.000000,360.000000) scale(0.100000,-0.100000)"
fill="#000000" stroke="none">
<path d="M24 3585 c-18 -13 -16 -14 20 -15 22 0 37 1 35 3 -2 1 -11 8 -20 15
-12 9 -20 9 -35 -3z"/>
<path d="M11 3543 c-1 -20 3 -23 37 -21 36 1 36 1 5 5 -19 3 -34 11 -36 21 -3
12 -5 10 -6 -5z"/>
<path d="M60 3549 c0 -5 5 -7 10 -4 6 3 10 8 10 11 0 2 -4 4 -10 4 -5 0 -10
-5 -10 -11z"/>
<path d="M1342 3408 c-8 -8 -12 -48 -12 -115 l0 -103 -308 0 c-226 0 -311 -3
-320 -12 -17 -17 -17 -419 0 -436 7 -7 44 -12 95 -12 l83 0 0 -27 c0 -16 4
-111 10 -213 5 -102 14 -282 20 -400 6 -118 19 -397 30 -620 11 -223 27 -551
35 -730 9 -179 18 -332 21 -341 2 -9 15 -20 27 -23 29 -8 1675 -8 1705 0 12 4
24 16 27 28 3 11 14 212 25 446 11 234 25 517 30 630 28 576 41 852 50 1020 6
102 10 195 10 208 0 21 4 22 83 22 51 0 88 5 95 12 17 17 17 419 0 436 -9 9
-94 12 -320 12 l-308 0 0 103 c0 67 -4 107 -12 115 -17 17 -1049 17 -1066 0z
m998 -138 l0 -80 -465 0 -465 0 0 80 0 80 465 0 465 0 0 -80z m640 -310 l0
-150 -1105 0 -1105 0 0 150 0 150 1105 0 1105 0 0 -150z m-207 -667 c-12 -241
-35 -739 -53 -1108 -17 -369 -33 -685 -36 -702 l-5 -33 -807 0 -808 0 -12 273
c-7 149 -19 405 -27 567 -38 759 -65 1341 -65 1388 l0 52 918 0 917 0 -22
-437z"/>
<path d="M1412 2452 c-10 -7 -12 -188 -10 -873 l3 -864 30 0 30 0 3 864 c2
884 2 881 -33 881 -5 0 -16 -4 -23 -8z"/>
<path d="M1852 2452 c-10 -7 -12 -188 -10 -873 l3 -864 30 0 30 0 3 864 c2
884 2 881 -33 881 -5 0 -16 -4 -23 -8z"/>
<path d="M2285 2448 c-3 -7 -4 -400 -3 -873 l3 -860 30 0 30 0 3 859 c1 626
-1 862 -9 872 -14 17 -48 18 -54 2z"/>
</g>
</svg>
